# xmcd CD database file
#
# Track frame offsets:
#	150
#	10455
#	20995
#	29835
#	39190
#	46630
#	56623
#	68626
#	76846
#	87121
#	97806
#	110769
#	121218
#	131694
#	143376
#	152397
#	163374
#	174485
#	182857
#	193563
#	202082
#	210253
#	218466
#	230622
#	240247
#	251949
#	268389
#	281784
#	292245
#	301772
#	311956
#
# Disc length: 4267 seconds
#
# Revision: 1
# Processed by: cddbd v1.5.2PL0 Copyright (c) Steve Scherf et al.
# Submitted via: CDex 1.94
#
DISCID=be10a91f
DTITLE=Various Artist - 63 Nuggets From The Cramps' Record Vault 2
DYEAR=1900
DGENRE=Blues
TTITLE0=The Tempests - Rockin' Rochester Usa
TTITLE1=Allen Page and The Deltones - Dateless Night
TTITLE2=Johnny Stark - Rockin' Billy
TTITLE3=Johnnie and Jonie - Kee Ro Ryin'
TTITLE4=Bob Luman - All Night Long
TTITLE5=Duane De Santo - Real Cool
TTITLE6=Don French - Lonely Saturday Night
TTITLE7=Jo Ann Castle - Cherokee
TTITLE8=The Revels - Intoxica
TTITLE9=The Four Plaid Throats - The Message
TTITLE10=Kay Starr - The Headless Horseman
TTITLE11=Bell Book and Candle - Zodiac Blues
TTITLE12=Frankie Capp Percussion Group - Peter Gunn
TTITLE13=Willie Mabon - I'm Mad
TTITLE14=The Fortune Tellers - Song Of The Nairobi Trio
TTITLE15=Tommy Dee and The Mellotones - Dragonfly
TTITLE16=Bobby Williams - Tarzan
TTITLE17=Bob and Terry Caraway - Ballin' Keen
TTITLE18=David Houston - One And Only
TTITLE19=Misty Bonner - I Can't Sit Still
TTITLE20=Bill Hayes - Bop Boy
TTITLE21=Sweetie Jones - Baby Please Don't Leave Me
TTITLE22=Leon Mach - You Hurt Me So
TTITLE23=Gar Bacon - There's Gonna Be Rockin' Tonight
TTITLE24=Gravestone Four - Rigor Mortis
TTITLE25=Ron Feuer - Why Don't You Do Right
TTITLE26=Terry Snyder - Blue Tango
TTITLE27=Mel McGonnigle - Rattle Shakin' Mama
TTITLE28=The Cables - Choo Choo
TTITLE29=Buck Owens - Hot Dog
TTITLE30=The Myrogens - The Dancing Katydids
EXTD=
EXTT0=
EXTT1=
EXTT2=
EXTT3=
EXTT4=
EXTT5=
EXTT6=
EXTT7=
EXTT8=
EXTT9=
EXTT10=
EXTT11=
EXTT12=
EXTT13=
EXTT14=
EXTT15=
EXTT16=
EXTT17=
EXTT18=
EXTT19=
EXTT20=
EXTT21=
EXTT22=
EXTT23=
EXTT24=
EXTT25=
EXTT26=
EXTT27=
EXTT28=
EXTT29=
EXTT30=
PLAYORDER=
